<?xml version="1.0" standalone="no"?>
<!DOCTYPE svg PUBLIC "-//W3C//DTD SVG 20010904//EN"
 "http://www.w3.org/TR/2001/REC-SVG-20010904/DTD/svg10.dtd">
<svg version="1.0" xmlns="http://www.w3.org/2000/svg"
 width="1000.000000pt" height="800.000000pt" viewBox="0 0 1000.000000 800.000000"
 preserveAspectRatio="xMidYMid meet">
<metadata>
By Premeditated (Mediawiki)
</metadata>
<g transform="translate(0.000000,800.000000) scale(0.100000,-0.100000)"
fill="#000000" stroke="none">
<path d="M4671 7704 c-12 -15 -21 -34 -21 -43 0 -9 18 -90 40 -181 22 -91 40
-173 40 -183 0 -32 30 -77 55 -83 32 -8 75 19 75 48 0 11 -10 36 -22 56 -14
23 -21 50 -20 81 1 56 -32 223 -54 272 -9 20 -27 42 -40 48 -32 14 -29 15 -53
-15z"/>
<path d="M5883 7615 c-12 -8 -24 -30 -28 -48 -12 -56 -49 -108 -204 -282 -151
-171 -168 -199 -135 -226 27 -23 70 13 284 234 177 184 200 211 200 241 0 33
-23 62 -67 85 -27 14 -24 14 -50 -4z"/>
<path d="M3517 7443 c-4 -3 -7 -23 -7 -44 0 -36 7 -44 118 -145 137 -124 302
-251 338 -260 38 -10 74 10 74 41 0 20 -28 47 -147 142 -82 64 -185 152 -229
195 -64 61 -88 78 -111 78 -16 0 -33 -3 -36 -7z"/>
<path d="M4914 6652 c-132 -86 -235 -234 -270 -388 -22 -101 -16 -259 13 -324
52 -118 184 -151 403 -100 101 23 137 43 110 60 -30 19 -96 22 -199 10 -59 -7
-124 -10 -145 -6 -83 16 -123 95 -113 226 15 193 116 358 276 450 62 36 71 52
51 91 -17 30 -60 23 -126 -19z"/>
<path d="M4769 5545 c-37 -20 -39 -32 -27 -132 9 -72 7 -138 -11 -367 l-22
-279 25 -26 26 -25 21 20 c21 22 23 34 49 354 13 165 30 289 42 313 5 9 15 17
22 17 23 0 73 -90 105 -186 37 -113 41 -140 21 -135 -34 10 -98 5 -113 -8 -22
-18 -21 -54 2 -75 10 -9 57 -24 105 -33 l87 -17 45 24 c55 30 62 40 40 52 -62
35 -84 68 -122 186 -46 145 -92 238 -142 291 -34 36 -44 41 -83 41 -24 -1 -56
-7 -70 -15z"/>
<path d="M3372 4524 c-39 -18 -31 -108 14 -143 25 -19 25 -19 94 5 38 13 90
24 114 24 l44 0 30 -72 c17 -40 58 -129 91 -198 34 -69 61 -138 61 -153 0 -38
-46 -84 -94 -92 -29 -6 -48 -1 -93 20 -54 27 -57 27 -70 10 -7 -11 -13 -33
-13 -51 0 -26 8 -39 37 -61 31 -24 46 -28 97 -27 111 1 236 85 236 158 0 38
-28 124 -99 297 -28 69 -51 130 -51 136 0 6 17 7 48 2 26 -4 71 -8 99 -8 46
-1 55 2 69 25 16 24 16 26 -2 44 -22 21 -198 53 -384 70 -63 5 -137 12 -165
15 -27 2 -56 2 -63 -1z"/>
<path d="M5760 4488 c-25 -41 -25 -55 1 -126 52 -142 79 -293 79 -443 0 -62 4
-81 21 -103 26 -33 53 -33 85 -1 l25 25 -21 35 -22 35 26 0 c13 0 82 -12 153
-26 245 -50 443 -82 449 -72 7 12 22 3 -136 77 -89 42 -175 73 -255 94 -66 16
-127 36 -135 43 -26 25 18 62 175 150 158 88 185 110 185 152 0 25 -44 82 -63
82 -6 0 -31 -22 -56 -50 -48 -52 -340 -236 -351 -222 -4 4 -21 75 -39 157 -36
165 -45 191 -78 212 -21 14 -23 13 -43 -19z"/>
<path d="M4320 4421 c-15 -29 -12 -93 6 -137 26 -62 23 -126 -9 -167 -44 -58
-50 -83 -36 -157 15 -82 40 -150 57 -150 6 0 29 18 51 40 21 22 43 40 47 40 5
0 20 -9 34 -20 54 -42 90 -15 90 66 0 47 12 68 55 93 47 28 44 48 -10 71 -47
20 -75 62 -75 111 0 27 -38 94 -97 172 -36 46 -50 57 -73 57 -19 0 -33 -7 -40
-19z"/>
<path d="M4825 4388 c-25 -29 -60 -82 -78 -118 -29 -58 -32 -75 -35 -171 -3
-92 -1 -113 18 -158 31 -70 84 -116 154 -132 51 -11 64 -10 153 14 54 14 117
28 140 32 22 4 48 12 57 18 15 11 15 14 1 35 -20 28 -51 28 -188 2 -82 -16
-111 -18 -133 -9 -92 34 -148 173 -113 280 16 49 42 69 84 62 19 -3 46 -2 61
1 25 7 26 10 21 49 -12 83 -27 116 -57 132 -16 8 -31 15 -34 15 -2 0 -25 -24
-51 -52z"/>
<path d="M4841 3586 c-12 -18 -21 -40 -21 -48 0 -9 15 -63 34 -120 19 -58 40
-133 47 -167 13 -59 12 -64 -6 -77 -11 -8 -43 -14 -77 -14 -49 0 -63 -4 -83
-25 -32 -31 -31 -39 3 -65 24 -20 35 -22 96 -17 101 9 103 7 111 -120 7 -101
27 -183 45 -183 4 0 16 12 25 27 15 23 17 42 12 135 -5 102 -4 110 16 132 12
13 41 28 64 35 53 15 92 45 77 61 -6 6 -43 14 -83 17 -39 3 -78 11 -86 17 -10
7 -20 51 -31 131 -19 152 -40 253 -55 272 -7 8 -25 21 -40 29 -27 13 -28 13
-48 -20z"/>
<path d="M5093 2378 c-5 -7 -15 -58 -21 -113 -17 -136 -50 -295 -68 -322 -8
-13 -26 -30 -40 -40 -24 -15 -29 -15 -52 -2 -15 8 -37 30 -49 48 -19 29 -22
42 -17 83 9 67 -11 137 -44 149 -34 13 -48 6 -68 -33 -13 -26 -16 -49 -11
-119 3 -47 12 -101 20 -120 36 -86 113 -138 202 -139 65 0 109 29 154 104 52
86 72 171 78 326 5 128 4 136 -17 163 -23 29 -51 35 -67 15z"/>
<path d="M5036 1575 c-49 -17 -132 -97 -157 -150 -24 -51 -24 -128 0 -180 11
-25 52 -72 106 -120 156 -142 294 -278 322 -317 32 -48 35 -94 5 -118 -12 -10
-81 -37 -154 -60 -153 -49 -245 -60 -350 -40 -61 12 -71 11 -84 -2 -22 -22
-10 -53 32 -79 32 -19 45 -21 152 -17 96 4 145 12 272 46 235 63 280 90 280
164 0 46 -58 162 -111 225 -24 28 -91 92 -149 141 -116 98 -194 178 -211 216
-6 13 -9 37 -5 51 6 23 11 26 29 20 12 -4 39 -9 60 -12 35 -5 38 -3 53 32 35
84 27 182 -17 205 -22 12 -25 12 -73 -5z"/>
</g>
</svg>
